<svg id="Group_186" data-name="Group 186" xmlns="http://www.w3.org/2000/svg" width="74.078" height="70.838"
     viewBox="0 0 74.078 70.838">
    <path id="Path_185" data-name="Path 185"
          d="M87.3,78.695c2.612,1.363,5.1,2.572,7.494,3.939,2.056,1.173,2.095,1.5,1.213,3.633-.539,1.3-1,2.644-1.656,3.886a2.026,2.026,0,0,0,.545,2.818,27.386,27.386,0,1,1-24.65-7.247,2.3,2.3,0,0,0,2.138-1.858c.416-1.655,1.12-3.236,1.565-4.884a2.331,2.331,0,0,1,2.9-1.929c2,.256,3.992.53,6,.7.477.04,1.283-.169,1.435-.5,2.031-4.369,6.872-5.741,11.51-4.745,5.7,1.225,10.922,3.774,16.124,6.319a1.464,1.464,0,0,1,.782,2.141c-.561,1.079-1.454,1.056-2.453.615-3.406-1.5-6.758-3.163-10.256-4.409a30.057,30.057,0,0,0-7.6-1.61A4.84,4.84,0,0,0,87.3,78.695ZM51.587,112.468a24.193,24.193,0,1,0,24.5-24.055A24.251,24.251,0,0,0,51.587,112.468ZM92.92,85.263a31.679,31.679,0,0,0-15.069-4.9,1.3,1.3,0,0,0-1.064.5c-.528,1.34-.927,2.731-1.415,4.237a27.908,27.908,0,0,1,15.669,4.645Z"
          transform="translate(-48.368 -69.151)" fill="#35c5f1"/>
    <path id="Path_186" data-name="Path 186"
          d="M250.892,65.134c0-.554-.185-1.2.044-1.637.308-.581.909-1.34,1.433-1.379a1.986,1.986,0,0,1,1.593,1.13,11.037,11.037,0,0,1,.006,3.884,2,2,0,0,1-1.576,1.176c-.528-.035-1.16-.8-1.451-1.386A4.428,4.428,0,0,1,250.892,65.134Z"
          transform="translate(-189.59 -62.117)" fill="#35c5f1"/>
    <path id="Path_187" data-name="Path 187"
          d="M254.071,118.565c-.034.6.125,1.32-.151,1.777-.334.553-1.046,1.234-1.574,1.216a2.052,2.052,0,0,1-1.47-1.307,8.391,8.391,0,0,1-.009-3.444,2.175,2.175,0,0,1,1.512-1.427c.538,0,1.238.792,1.574,1.4.255.463.051,1.18.051,1.784Z"
          transform="translate(-189.502 -99.271)" fill="#35c5f1"/>
    <path id="Path_188" data-name="Path 188"
          d="M230.083,114.741c-.336-.258-.948-.5-1.119-.919a1.973,1.973,0,0,1,.073-1.656,12.991,12.991,0,0,1,2.661-2.629,2.009,2.009,0,0,1,1.864.134,1.764,1.764,0,0,1,.4,1.681,33.368,33.368,0,0,1-3.119,3.2C230.721,114.667,230.468,114.649,230.083,114.741Z"
          transform="translate(-174.243 -95.074)" fill="#35c5f1"/>
    <path id="Path_189" data-name="Path 189"
          d="M272.157,72.9a4.477,4.477,0,0,1-.508,1.086,13.553,13.553,0,0,1-2.472,2.4,2.243,2.243,0,0,1-2.079-.128,1.977,1.977,0,0,1-.137-1.935,12.307,12.307,0,0,1,2.65-2.637,1.924,1.924,0,0,1,1.638,0C271.658,71.879,271.87,72.494,272.157,72.9Z"
          transform="translate(-200.717 -68.668)" fill="#35c5f1"/>
    <path id="Path_190" data-name="Path 190"
          d="M272.067,113.159c-.237.283-.5.878-.923,1.03a2,2,0,0,1-1.642-.133,12.3,12.3,0,0,1-2.531-2.556,2.047,2.047,0,0,1,.027-1.871c.256-.394,1.378-.738,1.65-.52a35.63,35.63,0,0,1,3.295,3.223C272.054,112.447,272.007,112.716,272.067,113.159Z"
          transform="translate(-200.706 -94.848)" fill="#35c5f1"/>
    <path id="Path_191" data-name="Path 191"
          d="M275.684,96.711a4.421,4.421,0,0,1-1.783-.05c-.542-.267-1.265-.946-1.235-1.4a2.074,2.074,0,0,1,1.209-1.557,10.344,10.344,0,0,1,3.738-.016c.535.1,1.354,1.021,1.289,1.458-.087.587-.824,1.219-1.435,1.541-.472.248-1.18.05-1.783.05Z"
          transform="translate(-204.828 -84.026)" fill="#35c5f1"/>
    <path id="Path_192" data-name="Path 192"
          d="M69.675,156.374c.428-11.011,9.752-20.1,20.364-20.15,1.125,0,2.073.282,2.108,1.6.033,1.207-.771,1.6-1.881,1.666-9.917.588-16.693,7.293-17.424,17.216-.015.2.06.478-.045.59-.5.532-1.041,1.415-1.565,1.412s-1.111-.859-1.526-1.443C69.517,156.993,69.675,156.479,69.675,156.374Z"
          transform="translate(-63.188 -113.811)" fill="#35c5f1"/>
</svg>
