<svg xmlns="http://www.w3.org/2000/svg" width="55.818" height="53.424" viewBox="0 0 55.818 53.424">
    <path id="Path_249" data-name="Path 249"
          d="M218.177,253.946c.386-2.294.8-4.788,1.225-7.279.485-2.831,1.02-5.655,1.438-8.5a2.119,2.119,0,0,0-.521-1.577c-3.624-3.628-7.3-7.2-10.969-10.786a2.347,2.347,0,0,1-.752-2.879,2.475,2.475,0,0,1,2.116-1.347c5.06-.729,10.112-1.509,15.176-2.206a1.64,1.64,0,0,0,1.423-1.067c2.19-4.509,4.425-9,6.611-13.508a2.432,2.432,0,0,1,4.691-.02c2.171,4.476,4.394,8.927,6.56,13.405a1.817,1.817,0,0,0,1.573,1.205c5.027.685,10.041,1.466,15.064,2.188a2.432,2.432,0,0,1,2.251,1.65,2.346,2.346,0,0,1-.85,2.558c-3.638,3.56-7.257,7.138-10.921,10.671a1.888,1.888,0,0,0-.594,1.921c.894,5.015,1.74,10.039,2.612,15.058a2.325,2.325,0,0,1-3.568,2.573c-4.487-2.376-8.987-4.726-13.459-7.13a1.853,1.853,0,0,0-2-.014q-6.708,3.606-13.463,7.123C219.974,256.96,218.209,256.047,218.177,253.946Z"
          transform="translate(-208.364 -203.003)" fill="#fad74c"/>
</svg>
