<svg xmlns="http://www.w3.org/2000/svg" width="71.856" height="72.328" viewBox="0 0 71.856 72.328">
    <g id="Group_116" data-name="Group 116" transform="translate(-63.005 -55.344)">
        <path id="Path_254" data-name="Path 254"
              d="M185.611,122.585c1.82-.49,2.481-.193,3.049,1.435,2.8,8.028,5.645,16.041,8.3,24.118A11.852,11.852,0,0,1,197.1,153a36.679,36.679,0,0,1-1.214,5.727c-.737,2.627-1.936,3.489-4.638,3.47-5.331-.036-10.663-.11-15.994-.18a1.919,1.919,0,0,1-2.208-1.7c-.773-2.666-1.706-5.3-2.282-8a7.965,7.965,0,0,1,.274-4.024c2.761-8.149,5.639-16.259,8.526-24.366a2.821,2.821,0,0,1,1.193-1.433c1.045-.561,1.84.009,1.84,1.171q0,7.674,0,15.349c0,.514-.054,1.028-.069,1.542a2,2,0,0,1-1.054,1.827,4.507,4.507,0,0,0-1.886,5.221,4.86,4.86,0,0,0,4.415,3.46,4.682,4.682,0,0,0,4.523-3.544,4.467,4.467,0,0,0-1.882-5.126,1.864,1.864,0,0,1-1.017-1.648C185.6,134.7,185.611,128.664,185.611,122.585Z"
              transform="translate(-85.395 -53.106)" fill="#ff4c60"/>
        <path id="Path_255" data-name="Path 255"
              d="M84.619,61.431q-4.169,0-8.338,0c-.585,0-1.172.045-1.754.011-1.392-.081-2.442.021-3.385,1.5-1.433,2.245-4.786,2.254-6.715.376a4.61,4.61,0,0,1,.162-6.781,4.508,4.508,0,0,1,6.724.678,3.105,3.105,0,0,0,2.811,1.439c3.164.094,6.328.2,9.492.233,3.2.035,6.4-.021,9.6-.005a1.1,1.1,0,0,0,1.241-.739,4.614,4.614,0,0,1,8.448,0,1.079,1.079,0,0,0,1.173.721q10.22-.02,20.44.006a1.527,1.527,0,0,0,1.586-.986,4.525,4.525,0,0,1,5.1-2.4,4.622,4.622,0,0,1,.4,8.935,4.532,4.532,0,0,1-5.351-2.028,1.63,1.63,0,0,0-1.63-.939c-3.682.013-7.363-.029-11.045-.048-.267,0-.533.026-1.116.057.489.364.762.575,1.043.776,2.011,1.44,4.106,2.778,6.021,4.337a30.948,30.948,0,0,1,10.957,18.7,1.66,1.66,0,0,0,1.095,1.417,4.527,4.527,0,0,1,2.632,5.076,4.659,4.659,0,0,1-9.008.489,4.482,4.482,0,0,1,2.054-5.326c.837-.454.849-.937.69-1.72a30.149,30.149,0,0,0-24.209-23.39,1.282,1.282,0,0,0-1.014.51,4.62,4.62,0,0,1-7.914.174c-.593-.881-1.3-.622-2-.5a25.715,25.715,0,0,0-9.455,3.662C76.178,70.248,71.308,76.5,69.489,84.935a1.7,1.7,0,0,0,.844,2.193,4.416,4.416,0,0,1,1.7,5.356,4.658,4.658,0,0,1-8.955-.851,4.488,4.488,0,0,1,2.591-4.906,1.834,1.834,0,0,0,1.224-1.538A32.245,32.245,0,0,1,83.676,62.547a9.834,9.834,0,0,0,1.1-.819Z"
              fill="#ff4c60"/>
        <path id="Path_256" data-name="Path 256"
              d="M192.318,344.646c-2.958,0-5.916.007-8.873,0-1.789-.006-2.514-.64-2.443-2.407.144-3.592.393-7.18.619-10.768a4.234,4.234,0,0,1,.28-1.092c.463-1.33.833-1.574,2.265-1.574,5.468,0,10.937.027,16.405-.022a1.661,1.661,0,0,1,1.9,1.323,39.351,39.351,0,0,1,.953,5.138c.2,2.251.219,4.523.221,6.787,0,2.075-.6,2.615-2.662,2.617Q196.652,344.65,192.318,344.646Z"
              transform="translate(-93.629 -216.976)" fill="#ff4c60"/>
    </g>
</svg>
