<svg xmlns="http://www.w3.org/2000/svg" width="85.567" height="68.974" viewBox="0 0 85.567 68.974">
    <g id="Group_120" data-name="Group 120" transform="translate(-138 -158.8)">
        <path id="Path_257" data-name="Path 257"
              d="M268.831,216.308c-.23.644-.453,1.291-.69,1.932-1.551,4.181-5.1,6.544-10.081,6.565-9.373.039-18.746.012-28.119.013H211.17c1.1-8.751.4-17.343.521-25.916.12-8.551.052-17.106-.008-25.659a33.441,33.441,0,0,0-.64-4.465h11.511a30.9,30.9,0,0,1,.664-4.43,7.733,7.733,0,0,1,7.389-5.509c4.749-.057,9.5-.041,14.249-.016,5,.028,8.282,3.27,8.439,8.279.015.49,0,.98,0,1.785,7.28-.733,13.438.45,15.535,8.615Zm-30.885-39.157c-10.62.024-19.61,8.9-19.632,19.393a19.723,19.723,0,1,0,19.632-19.393Z"
              transform="translate(-45.264)" fill="#35c5f1"/>
        <path id="Path_258" data-name="Path 258"
              d="M138,183.309c1.6-4.421,4.787-6.22,9.409-5.893,2.27.161,4.561-.012,6.842.04,4.651.106,7.7,3.194,7.706,7.83q.023,23.107,0,46.214a7.412,7.412,0,0,1-7.756,7.774c-2.344.026-4.689.005-7.034.005-5.408,0-7.162-1.174-9.167-6.131Z"
              transform="translate(0 -11.513)" fill="#35c5f1"/>
        <path id="Path_259" data-name="Path 259"
              d="M257.244,218.862a15.178,15.178,0,0,1,15.174,15.411,15.23,15.23,0,1,1-30.456-.5A15.185,15.185,0,0,1,257.244,218.862Z"
              transform="translate(-64.426 -37.221)" fill="#35c5f1"/>
    </g>
</svg>
