<svg xmlns="http://www.w3.org/2000/svg" width="100.489" height="70.839" viewBox="0 0 100.489 70.839">
    <path id="Path_195" data-name="Path 195"
          d="M31.24,3.966c5.736-7.63,11.491-15.246,17.184-22.909a2.893,2.893,0,0,1,2.643-1.333q30.664.062,61.329.011a2.033,2.033,0,0,1,1.86.921q8.4,11.293,16.869,22.537c.194.259.377.527.6.844L81.5,50.563c-.838-.77-1.628-1.494-2.415-2.223Q55.728,26.7,32.368,5.063c-.352-.326-.751-.6-1.128-.9ZM81.5,43.405,100.6,5.842H62.56ZM39.329,5.76l-.073.22L74.291,38.434a.864.864,0,0,0-.088-.616q-7.916-15.7-15.82-31.4a1.136,1.136,0,0,0-1.235-.667q-8.533.021-17.065.009Zm84.4.222-.068-.222h-.849c-5.559,0-11.118.02-16.677-.023a1.412,1.412,0,0,0-1.477.927Q96.85,22.091,89,37.5c-.132.26-.237.535-.354.8l.127.069Zm-42.1-21.056L64.845,1.706H98.4ZM103.094.294l6.463-16.46H86.634Zm-43-.475L76.1-16.2H54.749ZM56.5,1.741,50.794-15.383,37.957,1.741Zm56.586-15.928L106.852,1.7H125Z"
          transform="translate(-31.24 20.276)" fill="#fad74c"/>
</svg>
