<svg xmlns="http://www.w3.org/2000/svg" width="66.922" height="68.437" viewBox="0 0 66.922 68.437">
    <path id="Path_184" data-name="Path 184"
          d="M223.379,168.873c-.147,1.1-.228,2.221-.451,3.309-1.426,6.931-5.816,10.7-12.991,11.18a5.821,5.821,0,0,1-1.722.039c-1.5-.372-2.454.3-3.449,1.335-2.794,2.918-5.689,5.74-8.558,8.586a3.729,3.729,0,0,1-.828.49l3.465,3.475c.654-.706,1.31-1.46,2.014-2.165a2.236,2.236,0,0,1,3.452.012q8.281,8.282,16.542,16.585c1.243,1.251,1.22,2.472-.042,3.725q-3.751,3.724-7.525,7.423a2.179,2.179,0,0,1-3.312.016q-8.425-8.4-16.823-16.82a2.2,2.2,0,0,1,.015-3.249c.709-.742,1.463-1.442,2.151-2.115l-3.2-3.2c-.125.109-.333.27-.518.454q-6.461,6.428-12.919,12.86c-2.906,2.893-5.8,5.8-8.736,8.664a4.028,4.028,0,0,1-1.61.938c-1.8.534-3.635.958-5.452,1.445a2.572,2.572,0,0,1-2.8-.764c-.9-.984-1.874-1.907-2.828-2.842a2.377,2.377,0,0,1-.685-2.489c.492-1.846.9-3.717,1.458-5.542a4.814,4.814,0,0,1,1.133-1.912q10.521-10.617,21.1-21.178c.232-.232.453-.475.659-.69L168.627,174.2l-.88.8a2.236,2.236,0,0,1-3.32-.09q-3.661-4.3-7.215-8.692a2.085,2.085,0,0,1,.15-2.838q1.935-2.057,3.994-3.994a2.222,2.222,0,0,1,3.006-.073q4.34,3.545,8.619,7.162a2.148,2.148,0,0,1,.179,3.172c-.308.367-.659.7-.944,1l12.242,12.245c.184-.169.406-.362.615-.57,3.138-3.135,6.263-6.284,9.423-9.4a2.2,2.2,0,0,0,.649-1.672,31.883,31.883,0,0,1,.465-5.874c1.288-5.568,5.044-8.65,10.525-9.8l1.749-.368h4.011c2,1.016,2.324,1.89,1.5,4.013-.921,2.369-1.8,4.756-2.767,7.106-.27.656,0,.975.369,1.41.384.451.721.255,1.12.1,2.6-1,5.189-2.019,7.8-2.991a2.317,2.317,0,0,1,3.3,2.182,8.215,8.215,0,0,0,.163.941Zm-4.8,1.4c-2.176.835-4.281,1.608-6.357,2.45a2.551,2.551,0,0,1-3.2-.671c-.44-.5-.943-.947-1.411-1.423-2.25-2.287-2.845-2.068-1.272-5.882.644-1.561,1.21-3.154,1.835-4.793a2.509,2.509,0,0,0-.457-.04c-3.563.5-6.154,2.28-7.293,5.605a14.968,14.968,0,0,0-.528,6.662,3.37,3.37,0,0,1-1.107,3c-11.292,11.262-22.535,22.573-33.872,33.79a10.392,10.392,0,0,0-3.335,5.828,1.626,1.626,0,0,0,.449,1.667,1.353,1.353,0,0,0,1.6.4c.741-.261,1.551-.336,2.277-.626a5.893,5.893,0,0,0,1.9-1.106c2.41-2.314,4.762-4.687,7.127-7.047q14.254-14.229,28.488-28.476a3.549,3.549,0,0,1,3.023-1.057,25.914,25.914,0,0,0,4.714-.057A8.264,8.264,0,0,0,218.576,170.274Zm-20.191,34.1,13.4,13.4,4.139-4.147-13.39-13.386Zm-36.119-39.448,4.152,4.912,1.622-1.537-4.975-4.141Z"
          transform="translate(-156.458 -155.2)" fill="#ff4c60"/>
</svg>
