<svg xmlns="http://www.w3.org/2000/svg" width="293.882" height="209" viewBox="0 0 293.882 209">
    <g id="Group_187" data-name="Group 187" transform="translate(256 275.765)" opacity="0.1">
        <path id="Path_265" data-name="Path 265"
              d="M355.349-267.613a11.589,11.589,0,0,1-4.754,4.762c-6.16,3.57-12.408,7-18.479,10.71-11.912,7.288-23.3,15.326-32.477,25.974-3.81,4.419-6.922,9.441-10.289,14.233a11.113,11.113,0,0,0-1.245,2.82c-.741,2.172-.463,2.523,1.767,2.881,4.77.766,9.661,1.138,14.275,2.463,19.98,5.74,34.509,18.272,43.743,36.726,10.018,20.021,9.945,40.66.4,60.542-10.079,20.987-27.058,34.495-50.318,38.566-32.223,5.641-58.679-9.729-72.6-32.789-7.59-12.569-10.312-26.471-9.8-40.965.924-25.945,7.5-50.306,21.518-72.38,11.656-18.353,27.417-32.318,46.508-42.589,18.5-9.953,38.332-15.761,59.067-18.688,1.285-.181,2.581-.281,3.872-.419h2.285c3.335.486,5.637,2.186,6.529,5.544Z"
              transform="translate(-317.544)" fill="#fff"/>
        <path id="Path_266" data-name="Path 266"
              d="M-121.5-275.765c3.53,1.093,5.522,3.764,5.328,7.152a5.2,5.2,0,0,1-2.358,4.421c-2.49,1.548-4.987,3.1-7.562,4.5-10.379,5.641-20.621,11.554-29.824,18.966-9.752,7.854-18.958,16.34-25.328,27.37-.921,1.6-1.678,3.285-2.512,4.931-.54,1.067-.153,1.657.971,1.815,2.689.379,5.389.68,8.069,1.115,16.534,2.68,30.039,10.824,41.053,23.178,8.448,9.476,14.411,20.391,16.192,33.055,1.664,11.84,1.9,23.765-2.424,35.241-5.818,15.442-15.126,28.191-29.4,36.921-13.759,8.416-28.726,11.237-44.73,9.852C-220.537-69.542-250.121-90.86-255.1-127c-.288-2.09-.6-4.177-.9-6.265v-10.761a15.025,15.025,0,0,0,.283-1.577,162.109,162.109,0,0,1,7.249-37.83c11.179-34.742,33.308-60.016,66.124-75.966a179.639,179.639,0,0,1,48.08-15.054c2.935-.511,5.895-.878,8.843-1.312Z"
              fill="#fff"/>
    </g>
</svg>
