<svg xmlns="http://www.w3.org/2000/svg" width="40.103" height="53.88" viewBox="0 0 40.103 53.88">
    <g id="Group_87" data-name="Group 87" transform="translate(-165.173 -100)">
        <path id="Path_244" data-name="Path 244"
              d="M194.951,100a27.839,27.839,0,0,1,3.062,2.067,6.517,6.517,0,0,0,4.708,1.81c3.772-.148,5.213,2.282,5.346,5.468a7.892,7.892,0,0,0,1.569,4.337,16.991,16.991,0,0,1,1.751,2.935,3.944,3.944,0,0,1-1.114,5.076,5.828,5.828,0,0,0-2.243,5.069,5.373,5.373,0,0,1-5.85,5.25c-1.534-.166-2.622.589-3.782,1.38a15.724,15.724,0,0,1-3.372,1.915,4.288,4.288,0,0,1-4.093-.873c-.723-.538-1.423-1.106-2.147-1.642a4.051,4.051,0,0,0-2.93-.773,5.5,5.5,0,0,1-5.877-5.158c-.015-.313-.016-.626-.011-.939a4.223,4.223,0,0,0-1.684-3.718,4.258,4.258,0,0,1-2-4.3,7.883,7.883,0,0,1,1.287-3.025,12.813,12.813,0,0,0,2.511-6.471c.306-3.069,1.85-4.552,4.808-4.493a7.633,7.633,0,0,0,5.6-2.253A16.522,16.522,0,0,1,193.081,100Zm-.958,7.11a10.639,10.639,0,1,0,10.625,10.672A10.65,10.65,0,0,0,193.993,107.11Z"
              transform="translate(-8.733)" fill="#ff4c60"/>
        <path id="Path_245" data-name="Path 245"
              d="M282.44,288.881a8.369,8.369,0,0,1-1.086-1.358c-1.9-3.733-3.751-7.488-5.594-11.186,1.1-.864,2.243-1.784,3.42-2.653a1.69,1.69,0,0,1,.955-.251,8.132,8.132,0,0,0,6.56-2.8c.332.63.632,1.191.925,1.756q2.172,4.2,4.338,8.4a5.149,5.149,0,0,1,.616,1.309c.126.682.345,1.562.036,2.039-.235.363-1.242.359-1.881.291-1.232-.132-2.441-.464-3.672-.623a1.168,1.168,0,0,0-.94.44c-.679,1.084-1.235,2.246-1.906,3.336a9.616,9.616,0,0,1-1.149,1.3Z"
              transform="translate(-87.493 -135.001)" fill="#ff4c60"/>
        <path id="Path_246" data-name="Path 246"
              d="M175,288.829c-.674-.945-1.424-1.844-2.006-2.843-1.384-2.375-1.352-2.392-4.036-1.912a23.834,23.834,0,0,1-2.45.4c-1.1.08-1.43-.312-1.3-1.435a2.947,2.947,0,0,1,.27-.993c1.931-3.8,3.878-7.584,5.873-11.475a8.325,8.325,0,0,0,6.9,2.822,1.714,1.714,0,0,1,.877.445c1.077.8,2.137,1.628,3.264,2.492-1.026,1.949-2.138,4.016-3.206,6.106-.756,1.478-1.416,3.007-2.193,4.473a17.334,17.334,0,0,1-1.361,1.921Z"
              transform="translate(0 -134.949)" fill="#ff4c60"/>
        <path id="Path_247" data-name="Path 247"
              d="M238.975,174.453c-1.616-1.691-3.132-3.254-4.605-4.856a.839.839,0,0,1,.03-.8,11.242,11.242,0,0,1,1.665-1.7,1.032,1.032,0,0,1,1,.1c.668.644,1.237,1.392,1.827,2.081,1.5-1.468,2.795-2.668,4.009-3.942.6-.633,1.006-.743,1.661-.046,2.1,2.229,1.982,1.676-.031,3.694C242.773,170.735,240.987,172.471,238.975,174.453Z"
              transform="translate(-54.675 -51.268)" fill="#ff4c60"/>
    </g>
</svg>
