<svg xmlns="http://www.w3.org/2000/svg" width="82.18" height="72.328" viewBox="0 0 82.18 72.328">
    <g id="Group_121" data-name="Group 121" transform="translate(387.379 359.779)">
        <path id="Path_260" data-name="Path 260"
              d="M-346.288-359.779h36.083a4.911,4.911,0,0,1,4.882,3.857,5.79,5.79,0,0,1,.118,1.275q.009,18.527,0,37.054,0,12.555,0,25.11a4.868,4.868,0,0,1-1.238,3.359,4.766,4.766,0,0,1-3.684,1.666q-14.311.013-28.622,0h-24.875q-9.389,0-18.778,0a4.708,4.708,0,0,1-3.8-1.749,5,5,0,0,1-1.184-3.258c.014-4.4,0-8.8,0-13.2q0-12.336,0-24.671,0-12.22,0-24.44a4.829,4.829,0,0,1,1.964-4.009,4.747,4.747,0,0,1,2.976-1q13.684-.005,27.368,0Zm-36.136,13.158v54.208h72.295v-54.208Zm69.024-9.86a3.28,3.28,0,0,0-3.3,3.238,3.264,3.264,0,0,0,3.258,3.326,3.3,3.3,0,0,0,3.318-3.26A3.272,3.272,0,0,0-313.4-356.481Zm-12.335,3.293a3.274,3.274,0,0,0,3.3,3.272,3.3,3.3,0,0,0,3.267-3.314,3.284,3.284,0,0,0-3.325-3.251A3.266,3.266,0,0,0-325.735-353.188Zm-2.478.023a3.277,3.277,0,0,0-3.159-3.316,3.278,3.278,0,0,0-3.408,3.227,3.293,3.293,0,0,0,3.21,3.337A3.275,3.275,0,0,0-328.214-353.164Z"
              transform="translate(0 0)" fill="#fad74c"/>
        <path id="Path_261" data-name="Path 261"
              d="M-119.818,110.947l4.914,1.936q3.6,1.416,7.2,2.827a.427.427,0,0,1,.331.47c-.016,1.452-.007,2.9-.008,4.356,0,.092-.008.184-.013.3-.095-.032-.173-.051-.246-.083l-16.409-7.111c-.335-.145-.677-.277-1-.443a.408.408,0,0,1-.2-.292c-.013-1.3,0-2.591-.014-3.886,0-.216.132-.256.274-.318l5.632-2.443,11.639-5.04c.093-.04.189-.075.315-.124.008.121.02.209.02.3,0,1.484,0,2.967.006,4.45a.361.361,0,0,1-.28.4q-5.907,2.265-11.807,4.547C-119.558,110.834-119.65,110.875-119.818,110.947Z"
              transform="translate(-245.683 -431.982)" fill="#fad74c"/>
        <path id="Path_262" data-name="Path 262"
              d="M376,122.167c0-.455,0-.871,0-1.287,0-1.139.008-2.278-.005-3.417a.386.386,0,0,1,.3-.427q5.791-2.261,11.576-4.537c.181-.071.359-.149.606-.252-.566-.221-1.06-.416-1.556-.608q-5.331-2.063-10.664-4.119a.342.342,0,0,1-.258-.388c.019-1.358.025-2.716.035-4.073,0-.183,0-.366,0-.6.145.051.251.081.352.124q8.571,3.7,17.144,7.39a.5.5,0,0,1,.355.554q-.025,1.755,0,3.511a.461.461,0,0,1-.328.508q-6.4,2.769-12.783,5.559l-4.451,1.94C376.231,122.088,376.134,122.118,376,122.167Z"
              transform="translate(-715.515 -433.258)" fill="#fad74c"/>
        <path id="Path_263" data-name="Path 263"
              d="M195.89,67.776c-.166-.016-.334-.022-.5-.049a1.38,1.38,0,0,1-1.275-1.708c.185-1.1.421-2.193.681-3.278q1.788-7.46,3.6-14.912c.446-1.835.917-3.664,1.378-5.5a2.677,2.677,0,0,1,.1-.3,1.868,1.868,0,0,1,2.838-.913,1.559,1.559,0,0,1,.6,1.781c-.247,1.163-.551,2.313-.825,3.47-.179.758-.338,1.522-.522,2.279q-2.09,8.592-4.189,17.182c-.059.243-.133.483-.213.72A1.567,1.567,0,0,1,195.89,67.776Z"
              transform="translate(-545.011 -375.451)" fill="#fad74c"/>
    </g>
</svg>
